<?xml version="1.0" encoding="utf-8"?>
<!-- Generator: Adobe Illustrator 19.0.0, SVG Export Plug-In . SVG Version: 6.00 Build 0)  -->
<svg version="1.0" id="Layer_1" xmlns="http://www.w3.org/2000/svg" xmlns:xlink="http://www.w3.org/1999/xlink" x="0px" y="0px"
	 viewBox="-275 379.1 59.1 34.9" enable-background="new -275 379.1 59.1 34.9" xml:space="preserve">
<g>
	<path fill="#FFFFFF" d="M-219.4,393.4c-2.2-2.2-5.2-3.6-8.6-3.6c-1.5,0-2.9,0.3-4.3,0.8l-1.7-3.7l-1.1-6.8c-0.1-0.5-0.5-1-1-1h-4.6
		c-0.6,0-1.1,0.5-1.1,1.1s0.5,1.1,1.1,1.1h3.5l0.9,5.2h-17.9l-0.9-1.4h2.5c0.6,0,1.1-0.5,1.1-1.1s-0.5-1.1-1.1-1.1h-7.8
		c-0.6,0-1.1,0.5-1.1,1.1c0,0.7,0.5,1.1,1.1,1.1h2.6l1.5,2.2l-1.8,3.4c-1.5-0.6-3.1-1-4.8-1c-3.3,0-6.4,1.4-8.6,3.6
		c-2.1,2.2-3.5,5.3-3.5,8.6c0,3.3,1.4,6.4,3.5,8.6c2.2,2.2,5.2,3.5,8.6,3.5l0,0c3.3,0,6.4-1.4,8.6-3.5c1.9-1.9,3.2-4.6,3.5-7.5h5.6
		c0.4,0,0.7-0.2,0.9-0.5l9-13.2l1,2.2c-0.8,0.5-1.6,1.1-2.3,1.8c-2.2,2.2-3.5,5.2-3.5,8.6c0,3.3,1.4,6.4,3.5,8.6
		c2.2,2.2,5.2,3.5,8.6,3.5l0,0c3.3,0,6.4-1.4,8.6-3.5c2.2-2.2,3.5-5.2,3.5-8.6C-215.9,398.6-217.2,395.5-219.4,393.4z M-255.9,408.9
		c-1.8,1.8-4.3,2.9-7,2.9c-2.7,0-5.2-1.1-7-2.9c-1.8-1.8-2.9-4.3-2.9-7c0-2.7,1.1-5.2,2.9-7c1.8-1.8,4.3-2.9,7-2.9
		c1.3,0,2.6,0.3,3.7,0.7l-3.7,6.8c0,0,0,0-0.1,0c-1.3,0-2.4,1.1-2.4,2.4c0,1.3,1.1,2.4,2.4,2.4c0.9,0,1.7-0.5,2.1-1.3h7.9
		C-253.3,405.3-254.3,407.4-255.9,408.9z M-260.8,400.8c0-0.1-0.1-0.1-0.1-0.2l3.7-6.8c0.5,0.3,0.9,0.7,1.3,1.1
		c1.5,1.6,2.6,3.6,2.8,5.9H-260.8z M-250.8,400.8c-0.3-2.9-1.6-5.5-3.5-7.5c-0.6-0.6-1.2-1.1-1.8-1.5l1.3-2.4l7.6,11.4H-250.8z
		 M-245.2,400l-7.5-11.2h15.1L-245.2,400z M-221,408.9c-1.8,1.8-4.3,2.9-7,2.9s-5.2-1.1-7-2.9c-1.8-1.8-2.9-4.3-2.9-7
		c0-2.7,1.1-5.2,2.9-7c0.5-0.5,1.1-1,1.7-1.4l2.6,5.6l0.7,1.5c-0.2,0.4-0.4,0.8-0.4,1.3c0,1.3,1.1,2.4,2.4,2.4s2.4-1.1,2.4-2.4
		c0-1.3-1.1-2.4-2.4-2.4l0,0l-3.3-7c1-0.4,2.1-0.6,3.3-0.6c2.7,0,5.2,1.1,7,2.9c1.8,1.8,2.9,4.3,2.9,7
		C-218.1,404.7-219.2,407.1-221,408.9z"/>
</g>
</svg>
