<?xml version="1.0" encoding="utf-8"?>
<!-- Generator: Adobe Illustrator 19.0.0, SVG Export Plug-In . SVG Version: 6.00 Build 0)  -->
<svg version="1.0" id="Layer_1" xmlns="http://www.w3.org/2000/svg" xmlns:xlink="http://www.w3.org/1999/xlink" x="0px" y="0px"
	 viewBox="0 0 59.1 34.9" enable-background="new 0 0 59.1 34.9" xml:space="preserve">
<g>
	<path fill="#1279BE" d="M55.6,14.3c-2.2-2.2-5.2-3.6-8.6-3.6c-1.5,0-2.9,0.3-4.3,0.8L41,7.8L39.9,1c-0.1-0.5-0.5-1-1-1l-4.6,0
		c-0.6,0-1.1,0.5-1.1,1.1s0.5,1.1,1.1,1.1h3.5l0.9,5.2H20.8L19.9,6h2.5c0.6,0,1.1-0.5,1.1-1.1c0-0.6-0.5-1.1-1.1-1.1h-7.8
		c-0.6,0-1.1,0.5-1.1,1.1C13.5,5.6,14,6,14.6,6h2.6l1.5,2.2l-1.8,3.4c-1.5-0.6-3.1-1-4.8-1c-3.3,0-6.4,1.4-8.6,3.6
		C1.4,16.4,0,19.5,0,22.8c0,3.3,1.4,6.4,3.5,8.6c2.2,2.2,5.2,3.5,8.6,3.5h0c3.3,0,6.4-1.4,8.6-3.5c1.9-1.9,3.2-4.6,3.5-7.5h5.6
		c0.4,0,0.7-0.2,0.9-0.5l9-13.2l1,2.2c-0.8,0.5-1.6,1.1-2.3,1.8c-2.2,2.2-3.5,5.2-3.5,8.6c0,3.3,1.4,6.4,3.5,8.6
		c2.2,2.2,5.2,3.5,8.6,3.5h0c3.3,0,6.4-1.4,8.6-3.5c2.2-2.2,3.5-5.2,3.5-8.6C59.1,19.5,57.8,16.4,55.6,14.3z M19.1,29.8
		c-1.8,1.8-4.3,2.9-7,2.9c-2.7,0-5.2-1.1-7-2.9c-1.8-1.8-2.9-4.3-2.9-7c0-2.7,1.1-5.2,2.9-7c1.8-1.8,4.3-2.9,7-2.9
		c1.3,0,2.6,0.3,3.7,0.7l-3.7,6.8c0,0,0,0-0.1,0c-1.3,0-2.4,1.1-2.4,2.4c0,1.3,1.1,2.4,2.4,2.4c0.9,0,1.7-0.5,2.1-1.3H22
		C21.7,26.2,20.7,28.3,19.1,29.8z M14.2,21.7c0-0.1-0.1-0.1-0.1-0.2l3.7-6.8c0.5,0.3,0.9,0.7,1.3,1.1c1.5,1.6,2.6,3.6,2.8,5.9H14.2z
		 M24.2,21.7c-0.3-2.9-1.6-5.5-3.5-7.5c-0.6-0.6-1.2-1.1-1.8-1.5l1.3-2.4l7.6,11.4H24.2z M29.8,20.9L22.3,9.7h15.1L29.8,20.9z
		 M54,29.8c-1.8,1.8-4.3,2.9-7,2.9c-2.7,0-5.2-1.1-7-2.9c-1.8-1.8-2.9-4.3-2.9-7c0-2.7,1.1-5.2,2.9-7c0.5-0.5,1.1-1,1.7-1.4l2.6,5.6
		l0.7,1.5c-0.2,0.4-0.4,0.8-0.4,1.3c0,1.3,1.1,2.4,2.4,2.4c1.3,0,2.4-1.1,2.4-2.4c0-1.3-1.1-2.4-2.4-2.4c0,0,0,0,0,0l-3.3-7
		c1-0.4,2.1-0.6,3.3-0.6c2.7,0,5.2,1.1,7,2.9c1.8,1.8,2.9,4.3,2.9,7C56.9,25.6,55.8,28,54,29.8z"/>
</g>
</svg>
