<?xml version="1.0" encoding="utf-8"?>
<!-- Generator: Adobe Illustrator 19.0.0, SVG Export Plug-In . SVG Version: 6.00 Build 0)  -->
<svg version="1.0" id="Layer_1" xmlns="http://www.w3.org/2000/svg" xmlns:xlink="http://www.w3.org/1999/xlink" x="0px" y="0px"
	 viewBox="-295 379.1 19.9 34.9" enable-background="new -295 379.1 19.9 34.9" xml:space="preserve">
<path fill="#0F79BE" d="M-293.2,391.9c-1.2,0-1.8,1.1-1.8,2.2v6.6c0,1.2,1,2.2,2.2,2.2h3.1v1.3c0,0,0,1,1,2.3
	c0.8,1.1,0.8,2.3,0.8,2.6c0,0.2,0.1,3.1,0.1,4.2c0,0.1,0.1,0.5,0.5,0.5v0.2h9v-0.2c0.4,0,0.5-0.3,0.5-0.5c0-1.1,0.1-4,0.1-4.2
	c0-0.3-0.1-1.4,0.8-2.6c1-1.3,1-2.3,1-2.3l0.6-14.4c0.1,0,0.2-0.1,0.2-0.3c0-0.2-0.1-0.3-0.3-0.3H-291c-0.2,0-0.3,0.1-0.3,0.3
	c0,0.2,0.1,0.3,0.3,0.3h0.8v2.1C-290.2,391.9-292.4,391.9-293.2,391.9z"/>
<g>
	<path fill="#0F79BE" d="M-281.1,387.9c1-0.7,1.8-1.8,1.8-3.1c0-2.6-1.8-2.7-1.9-5.7c0-0.1,0-0.1-0.1-0.1c-1,0.7-1.8,1.8-1.8,3.1
		C-283.1,384.8-281.3,384.9-281.1,387.9C-281.2,387.9-281.2,388-281.1,387.9"/>
	<path fill="#0F79BE" d="M-284.9,387.9c0.7-0.5,1.3-1.3,1.3-2.2c0-1.9-1.3-1.9-1.3-4c0-0.1,0-0.1-0.1,0c-0.7,0.5-1.3,1.2-1.3,2.1
		c0,1.9,1.3,1.9,1.3,4C-285,387.9-284.9,388-284.9,387.9"/>
</g>
</svg>
