<?xml version="1.0" encoding="utf-8"?>
<!-- Generator: Adobe Illustrator 19.0.0, SVG Export Plug-In . SVG Version: 6.00 Build 0)  -->
<svg version="1.0" id="Layer_1" xmlns="http://www.w3.org/2000/svg" xmlns:xlink="http://www.w3.org/1999/xlink" x="0px" y="0px"
	 viewBox="0 0 19.9 34.9" enable-background="new 0 0 19.9 34.9" xml:space="preserve">
<path fill="#FFFFFF" d="M1.8,12.8C0.6,12.8,0,13.9,0,15v6.6c0,1.2,1,2.2,2.2,2.2h3.1l0,1.3c0,0,0,1,1,2.3c0.8,1.1,0.8,2.3,0.8,2.6
	c0,0.2,0.1,3.1,0.1,4.2c0,0.1,0.1,0.5,0.5,0.5v0.2h9v-0.2c0.4,0,0.5-0.3,0.5-0.5c0-1.1,0.1-4,0.1-4.2c0-0.3-0.1-1.4,0.8-2.6
	c1-1.3,1-2.3,1-2.3l0.6-14.4c0.1,0,0.2-0.1,0.2-0.3c0-0.2-0.1-0.3-0.3-0.3H4c-0.2,0-0.3,0.1-0.3,0.3c0,0.2,0.1,0.3,0.3,0.3h0.8v2.1
	C4.8,12.8,2.6,12.8,1.8,12.8z"/>
<g>
	<path fill="#FFFFFF" d="M13.9,8.8c1-0.7,1.8-1.8,1.8-3.1c0-2.6-1.8-2.7-1.9-5.7c0-0.1,0-0.1-0.1-0.1c-1,0.7-1.8,1.8-1.8,3.1
		C11.9,5.7,13.7,5.8,13.9,8.8C13.8,8.8,13.8,8.9,13.9,8.8"/>
	<path fill="#FFFFFF" d="M10.1,8.8c0.7-0.5,1.3-1.3,1.3-2.2c0-1.9-1.3-1.9-1.3-4c0-0.1,0-0.1-0.1,0C9.3,3.1,8.7,3.8,8.7,4.7
		c0,1.9,1.3,1.9,1.3,4C10,8.8,10.1,8.9,10.1,8.8"/>
</g>
</svg>
