<?xml version="1.0" encoding="utf-8"?>
<!-- Generator: Adobe Illustrator 19.0.0, SVG Export Plug-In . SVG Version: 6.00 Build 0)  -->
<svg version="1.0" id="Layer_1" xmlns="http://www.w3.org/2000/svg" xmlns:xlink="http://www.w3.org/1999/xlink" x="0px" y="0px"
	 viewBox="-296 383.6 18.8 27.4" enable-background="new -296 383.6 18.8 27.4" xml:space="preserve">
<g>
	<path fill="#0F79BE" d="M-277.2,394c0-0.2,0-0.5-0.1-0.8c-0.4-0.9-0.7-1.8-1.1-2.6c-0.2-0.6-0.5-1.2-0.7-1.8c0-0.1-0.1-0.2-0.1-0.3
		c0-0.8,0-1.5,0-2.3v-2.6h-0.5c-0.1,0-0.1,0-0.2,0h-3c-3.6,0-7.1,0-10.7,0c-0.1,0-0.4,0-0.5,0.2c-0.2,0.1-0.2,0.4-0.2,0.5
		c0,0.9,0,1.8,0,2.7v0.7c0,0.5,0,0.9-0.2,1.3c-0.3,1-0.7,2.1-1.1,3.2v0.3c0,0.1-0.1,0.2-0.1,0.2c-0.1,0.4-0.3,0.8-0.3,1.2
		c0,1.1,0,2.2,0,3.2c0,0.4,0,0.8,0,1.3v7.6c0,1.4,0,2.7,0,4.1c0,0.7,0.2,0.9,0.9,0.9h5.1c2.2,0,4.3,0,6.5,0c0.1,0,0.2,0,0.4,0
		c0.1,0,0.3,0,0.4,0c0.3,0,0.5,0,0.7-0.1c0.9-0.2,1.7-0.4,2.6-0.5c0.6-0.1,1.2-0.3,1.8-0.4c0.4-0.1,0.6-0.3,0.6-0.7c0-1,0-2,0-3
		c0-0.6,0-1.1,0-1.7C-277.2,401.1-277.2,397.6-277.2,394z M-281.8,385v0.4l0,0V385z M-283.7,409.2
		C-283.8,409.2-283.8,409.2-283.7,409.2c-1.3,0-2.5,0-3.7,0h-3.8c-1,0-1.9,0-2.9,0c0-1.3,0-2.7,0-4v-1.4h0.7c0.5,0,0.9,0,1.4,0l0,0
		c0.9,0.9,2,1.4,3.1,1.4s2.2-0.5,3.1-1.4l0,0c0.4,0,0.9,0,1.3,0h0.9v5.4H-283.7z M-283.6,393.2c-0.1,0.2-0.1,0.4-0.1,0.7
		c0,0.8,0,1.5,0,2.3v0.7h-1.4c-0.2,0-0.5,0-0.7,0h-0.1c-0.9-0.9-2-1.3-3.1-1.3s-2.2,0.5-3.1,1.4c-0.5,0-1,0-1.4,0h-0.7v-0.2
		c0-0.9,0-1.8,0-2.7c0-0.1,0-0.2,0.1-0.3c0.2-0.5,0.3-1,0.5-1.5c0.2-1,0.5-1.8,0.8-2.7h1.8c0.3,0,0.6-0.3,0.6-0.6
		c0-0.3-0.3-0.6-0.6-0.6h-1.5c0-0.1,0-0.3,0-0.4v-0.1c0-0.9,0-1.8,0-2.6c2.5,0,4.9,0,7.4,0h2.4c0.3,0,0.5,0,0.8,0c0,0.4,0,0.8,0,1.3
		s0,1.1,0,1.6c0,0.1,0,0.1,0,0.2h-0.7c-0.3,0-0.6,0.3-0.6,0.6c-0.1,0.4,0.2,0.6,0.5,0.6h0.3c-0.1,0.4-0.3,0.8-0.4,1.2
		C-283.1,391.6-283.3,392.4-283.6,393.2z"/>
	<path fill="#0F79BE" d="M-287.7,388.4h-1.7c-0.4,0-0.6,0.3-0.6,0.6c0,0.4,0.2,0.6,0.6,0.6h1.8c0.3,0,0.6-0.3,0.6-0.6
		C-287.1,388.7-287.4,388.4-287.7,388.4z"/>
	<path fill="#0F79BE" d="M-284.3,388.4h-1.8c-0.3,0-0.6,0.3-0.6,0.6c0,0.4,0.3,0.6,0.6,0.6h1.8c0.3,0,0.6-0.3,0.6-0.6
		C-283.7,388.7-284,388.4-284.3,388.4z"/>
</g>
</svg>
