<?xml version="1.0" encoding="utf-8"?>
<!-- Generator: Adobe Illustrator 19.0.0, SVG Export Plug-In . SVG Version: 6.00 Build 0)  -->
<svg version="1.0" id="Layer_1" xmlns="http://www.w3.org/2000/svg" xmlns:xlink="http://www.w3.org/1999/xlink" x="0px" y="0px"
	 viewBox="0 0 18.8 27.4" enable-background="new 0 0 18.8 27.4" xml:space="preserve">
<g>
	<path fill="#FFFFFF" d="M18.8,10.4c0-0.2,0-0.5-0.1-0.8C18.3,8.7,18,7.8,17.6,7c-0.2-0.6-0.5-1.2-0.7-1.8c0-0.1-0.1-0.2-0.1-0.3
		c0-0.8,0-1.5,0-2.3V0l-0.5,0c-0.1,0-0.1,0-0.2,0h-3C9.5,0,6,0,2.4,0C2.3,0,2,0,1.9,0.2C1.7,0.3,1.7,0.6,1.7,0.7c0,0.9,0,1.8,0,2.7
		l0,0.7c0,0.5,0,0.9-0.2,1.3C1.2,6.4,0.8,7.5,0.4,8.6L0.4,8.9c0,0.1-0.1,0.2-0.1,0.2C0.2,9.5,0,9.9,0,10.3c0,1.1,0,2.2,0,3.2
		c0,0.4,0,0.8,0,1.3v7.6c0,1.4,0,2.7,0,4.1c0,0.7,0.2,0.9,0.9,0.9l5.1,0c2.2,0,4.3,0,6.5,0c0.1,0,0.2,0,0.4,0c0.1,0,0.3,0,0.4,0
		c0.3,0,0.5,0,0.7-0.1c0.9-0.2,1.7-0.4,2.6-0.5c0.6-0.1,1.2-0.3,1.8-0.4c0.4-0.1,0.6-0.3,0.6-0.7c0-1,0-2,0-3c0-0.6,0-1.1,0-1.7
		C18.8,17.5,18.8,14,18.8,10.4z M14.2,1.4l0,0.4c0,0,0,0,0,0L14.2,1.4z M12.3,25.6C12.2,25.6,12.2,25.6,12.3,25.6
		c-1.3,0-2.5,0-3.7,0l-3.8,0c-1,0-1.9,0-2.9,0c0-1.3,0-2.7,0-4l0-1.4h0.7c0.5,0,0.9,0,1.4,0c0,0,0,0,0,0c0.9,0.9,2,1.4,3.1,1.4
		c1.1,0,2.2-0.5,3.1-1.4c0,0,0,0,0,0c0.4,0,0.9,0,1.3,0l0.9,0V25.6z M12.4,9.6c-0.1,0.2-0.1,0.4-0.1,0.7c0,0.8,0,1.5,0,2.3l0,0.7
		h-1.4c-0.2,0-0.5,0-0.7,0c0,0-0.1,0-0.1,0c-0.9-0.9-2-1.3-3.1-1.3c-1.1,0-2.2,0.5-3.1,1.4c-0.5,0-1,0-1.4,0l-0.7,0v-0.2
		c0-0.9,0-1.8,0-2.7c0-0.1,0-0.2,0.1-0.3c0.2-0.5,0.3-1,0.5-1.5C2.6,7.7,2.9,6.9,3.2,6H5c0.3,0,0.6-0.3,0.6-0.6
		c0-0.3-0.3-0.6-0.6-0.6H3.5c0-0.1,0-0.3,0-0.4l0-0.1c0-0.9,0-1.8,0-2.6c2.5,0,4.9,0,7.4,0l2.4,0c0.3,0,0.5,0,0.8,0
		c0,0.4,0,0.8,0,1.3c0,0.5,0,1.1,0,1.6c0,0.1,0,0.1,0,0.2h-0.7c-0.3,0-0.6,0.3-0.6,0.6C12.7,5.8,13,6,13.3,6h0.3
		c-0.1,0.4-0.3,0.8-0.4,1.2C12.9,8,12.7,8.8,12.4,9.6z"/>
	<path fill="#FFFFFF" d="M8.3,4.8H6.6C6.2,4.8,6,5.1,6,5.4C6,5.8,6.2,6,6.6,6h1.8c0.3,0,0.6-0.3,0.6-0.6C8.9,5.1,8.6,4.8,8.3,4.8z"
		/>
	<path fill="#FFFFFF" d="M11.7,4.8H9.9c-0.3,0-0.6,0.3-0.6,0.6C9.3,5.8,9.6,6,9.9,6h1.8c0.3,0,0.6-0.3,0.6-0.6
		C12.3,5.1,12,4.8,11.7,4.8z"/>
</g>
</svg>
