<?xml version="1.0" encoding="utf-8"?>
<!-- Generator: Adobe Illustrator 19.0.0, SVG Export Plug-In . SVG Version: 6.00 Build 0)  -->
<svg version="1.0" id="Layer_1" xmlns="http://www.w3.org/2000/svg" xmlns:xlink="http://www.w3.org/1999/xlink" x="0px" y="0px"
	 viewBox="-295 387.5 19.2 19.5" enable-background="new -295 387.5 19.2 19.5" xml:space="preserve">
<g>
	<g>
		<path fill="#0B3D65" d="M-285.4,406.9c-5.3,0-9.6-4.3-9.6-9.6c0-5.3,4.3-9.6,9.6-9.6c5.3,0,9.6,4.3,9.6,9.6
			C-275.8,402.5-280.1,406.9-285.4,406.9z M-285.4,388.9c-4.6,0-8.4,3.8-8.4,8.4s3.8,8.4,8.4,8.4s8.4-3.8,8.4-8.4
			S-280.8,388.9-285.4,388.9z"/>
	</g>
	<g>
		<path fill="#0B3D65" d="M-281,398.1h-8.8c-0.5,0-0.9-0.4-0.9-0.9s0.4-0.9,0.9-0.9h8.8c0.5,0,0.9,0.4,0.9,0.9
			S-280.5,398.1-281,398.1z"/>
	</g>
	<g>
		<path fill="#0B3D65" d="M-285.4,402.5c-0.5,0-0.9-0.4-0.9-0.9v-8.8c0-0.5,0.4-0.9,0.9-0.9s0.9,0.4,0.9,0.9v8.8
			C-284.5,402.1-284.9,402.5-285.4,402.5z"/>
	</g>
</g>
</svg>
