<?xml version="1.0" encoding="utf-8"?>
<!-- Generator: Adobe Illustrator 18.1.1, SVG Export Plug-In . SVG Version: 6.00 Build 0)  -->
<svg version="1.1" id="Layer_1" xmlns="http://www.w3.org/2000/svg" xmlns:xlink="http://www.w3.org/1999/xlink" x="0px" y="0px"
	 viewBox="0 146 375 374.3" enable-background="new 0 146 375 374.3" xml:space="preserve">
<path fill="#FFFFFF" d="M0,333.1C0,229.8,84.6,146,187.9,146S375,229.8,375,333.1S290.4,521,187.1,520.3C83.8,520.3,0,436.4,0,333.1
	z M250,243.3c-11.2-11.2-22.5-22.5-32.2-32.2C177.4,251.5,137,292,96.6,332.4c41.2,41.2,82.3,82.3,123.5,123.5
	c9.7-9.7,21-21,31.4-31.4c-29.9-29.9-60.6-60.6-90.6-90.6C190.9,303.2,220.8,273.2,250,243.3z"/>
</svg>
