<?xml version="1.0" encoding="utf-8"?>
<!-- Generator: Adobe Illustrator 18.1.1, SVG Export Plug-In . SVG Version: 6.00 Build 0)  -->
<svg version="1.1" id="Layer_1" xmlns="http://www.w3.org/2000/svg" xmlns:xlink="http://www.w3.org/1999/xlink" x="0px" y="0px"
	 viewBox="0 146 375 374.3" enable-background="new 0 146 375 374.3" xml:space="preserve">
<path fill="#FFFFFF" d="M375,333.1c0,103.3-84.6,187.9-187.9,187.1C83.8,520.3,0,437.2,0,333.1C0,230.6,84.6,146,187.9,146
	S374.3,229.8,375,333.1z M124.3,422.9c11.2,11.2,22.5,22.5,32.2,32.2c40.4-40.4,80.8-80.8,121.3-121.3
	c-41.2-41.2-82.3-82.3-123.5-123.5c-9.7,9.7-21,21-31.4,31.4c29.9,29.9,60.6,60.6,90.6,90.6C184.1,363.8,154.2,393.8,124.3,422.9z"
	/>
</svg>
