<?xml version="1.0" encoding="utf-8"?>
<!-- Generator: Adobe Illustrator 19.0.0, SVG Export Plug-In . SVG Version: 6.00 Build 0)  -->
<svg version="1.1" id="Layer_1" xmlns="http://www.w3.org/2000/svg" xmlns:xlink="http://www.w3.org/1999/xlink" x="0px" y="0px"
	 viewBox="-287 411.4 19.2 19.5" style="enable-background:new -287 411.4 19.2 19.5;" xml:space="preserve">
<style type="text/css">
	.st0{fill:#0B3D65;}
</style>
<g>
	<g>
		<path class="st0" d="M-270.6,427.9c-3.7,3.7-9.8,3.7-13.6,0c-3.7-3.7-3.7-9.8,0-13.6c3.7-3.7,9.8-3.7,13.6,0
			C-266.9,418-266.9,424.2-270.6,427.9z M-283.3,415.2c-3.3,3.3-3.3,8.6,0,11.9c3.3,3.3,8.6,3.3,11.9,0c3.3-3.3,3.3-8.6,0-11.9
			C-274.7,411.9-280.1,411.9-283.3,415.2z"/>
	</g>
	<g>
		<path class="st0" d="M-273.7,418.6l-6.2,6.2c-0.4,0.4-0.9,0.4-1.3,0c-0.4-0.4-0.4-0.9,0-1.3l6.2-6.2c0.4-0.4,0.9-0.4,1.3,0
			C-273.4,417.7-273.4,418.2-273.7,418.6z"/>
	</g>
	<g>
		<path class="st0" d="M-273.7,424.8c-0.4,0.4-0.9,0.4-1.3,0l-6.2-6.2c-0.4-0.4-0.4-0.9,0-1.3s0.9-0.4,1.3,0l6.2,6.2
			C-273.4,423.9-273.4,424.5-273.7,424.8z"/>
	</g>
</g>
</svg>
