<?xml version="1.0" encoding="utf-8"?>
<!-- Generator: Adobe Illustrator 18.1.1, SVG Export Plug-In . SVG Version: 6.00 Build 0)  -->
<svg version="1.1" id="Layer_1" xmlns="http://www.w3.org/2000/svg" xmlns:xlink="http://www.w3.org/1999/xlink" x="0px" y="0px"
	 viewBox="190.7 188.6 118.5 122.9" enable-background="new 190.7 188.6 118.5 122.9" xml:space="preserve">
<g>
	<path opacity="0.3" fill="#72757B" d="M-1577.3,331.8c0,4.1-26.4,7.4-59,7.4c-32.6,0-59.1-3.3-59.1-7.4c0-4.1,26.7-10.1,59.3-10.1
		C-1603.4,321.7-1577.3,327.7-1577.3,331.8z"/>
	<path fill="#FFFFFF" d="M-1696,285.8c-0.4,2.4,0.6,4.6,2.6,5.8c1,0.6,2.3,0.9,3.5,0.9c1.4,0,2.8-0.4,3.9-1.2
		c1.7-1.3,2.4-3.4,1.9-5.7c0.7,0.1,1.5,0.2,2.3,0.4c-0.4,2-0.6,4-0.6,6.1c0,7.4,2.6,14.2,7.2,20.1l10.5,18.7c0,0,1.4,0.8,6.7,0.8
		s7.2-0.8,7.2-0.8l-2.6-7.8c0,0,4.9,5.1,18.4,5.1c14.2,0,18.1-4.2,18.1-4.2l1.1,6.9c0,0,1.6,0.8,6.8,0.8c5.2,0,6.6-0.8,6.6-0.8
		l5.5-14.9c0.8-1,5.2-5.5,5.8-6.6c-12-7.1-12-15.7-12-15.7c6.1,4,16,6.9,16,6.9c0,0,4.6-2.5,6.9-7.2c3.4-7.1,0.7-16.2,0.7-16.2
		l-10.8-1.1c-2.5-4.3-6-8.1-10.2-11.4c2.2-7.4,0.9-14.4-2.9-15.6c-3.4-1-7.6,2.6-10.2,8.4c-6.2-2.3-13.2-3.6-20.6-3.6
		c-22.3,0-41,11.9-46.6,28.2c-1.4-0.3-6.1-0.7-6.8-0.8c-1.1-0.7-4.9-2.6-5.5-3c-1-0.6-2.2-0.3-2.8,0.6c-0.6,1-0.3,2.2,0.6,2.8
		c0.4,0.2,0.8,0.5,1.3,0.7C-1694.9,283.1-1695.7,284.2-1696,285.8z M-1691.9,286.5c0.1-0.8,1.5-1.1,3-1.1c0.3,0.3,0.6,0.7,0.7,1
		c0.3,1.2-0.1,1.6-0.3,1.7c-0.7,0.5-1.9,0.5-2.7,0C-1691.8,287.8-1692,287.2-1691.9,286.5z"/>
	<circle fill="#0033A0" cx="-1607.2" cy="277.7" r="4.2"/>
	<path fill="#0033A0" d="M-1655.6,261.4C-1655.5,261.4-1655.5,261.4-1655.6,261.4c17.2-7.1,32.3-3.1,32.9-2.9v0
		c0.9,0.3,1.4,1.3,1.1,2.2c-0.3,0.9-1.2,1.4-2.1,1.2l0,0c-0.1,0-14.5-3.9-30.6,2.8l0,0c-0.9,0.4-1.9-0.1-2.3-0.9
		C-1656.9,262.8-1656.5,261.7-1655.6,261.4z"/>
	<g>
		<defs>
			<path id="SVGID_3_" d="M-1696,285.8c-0.4,2.4,0.6,4.6,2.6,5.8c1,0.6,2.3,0.9,3.5,0.9c1.4,0,2.8-0.4,3.9-1.2
				c1.7-1.3,2.4-3.4,1.9-5.7c0.7,0.1,1.5,0.2,2.3,0.4c-0.4,2-0.6,4-0.6,6.1c0,7.4,2.6,14.2,7.2,20.1l10.5,18.7c0,0,1.4,0.8,6.7,0.8
				s7.2-0.8,7.2-0.8l-2.6-7.8c0,0,4.9,5.1,18.4,5.1c14.2,0,18.1-4.2,18.1-4.2l1.1,6.9c0,0,1.6,0.8,6.8,0.8c5.2,0,6.6-0.8,6.6-0.8
				l5.5-14.9c0.8-1,5.2-5.5,5.8-6.6c-12-7.1-12-15.7-12-15.7c6.1,4,16,6.9,16,6.9c0,0,4.6-2.5,6.9-7.2c3.4-7.1,0.7-16.2,0.7-16.2
				l-10.8-1.1c-2.5-4.3-6-8.1-10.2-11.4c2.2-7.4,0.9-14.4-2.9-15.6c-3.4-1-7.6,2.6-10.2,8.4c-6.2-2.3-13.2-3.6-20.6-3.6
				c-22.3,0-41,11.9-46.6,28.2c-1.4-0.3-6.1-0.7-6.8-0.8c-1.1-0.7-4.9-2.6-5.5-3c-1-0.6-2.2-0.3-2.8,0.6c-0.6,1-0.3,2.2,0.6,2.8
				c0.4,0.2,0.8,0.5,1.3,0.7C-1694.9,283.1-1695.7,284.2-1696,285.8z M-1691.9,286.5c0.1-0.8,1.5-1.1,3-1.1c0.3,0.3,0.6,0.7,0.7,1
				c0.3,1.2-0.1,1.6-0.3,1.7c-0.7,0.5-1.9,0.5-2.7,0C-1691.8,287.8-1692,287.2-1691.9,286.5z"/>
		</defs>
		<clipPath id="SVGID_2_">
			<use xlink:href="#SVGID_3_"  overflow="visible"/>
		</clipPath>
	</g>
	<path fill="#FFFFFF" d="M-1624.3,243c5.3,0,9.7-4.3,9.7-9.7c0-5.3-4.3-9.7-9.7-9.7c-5.3,0-9.7,4.3-9.7,9.7
		C-1633.9,238.7-1629.6,243-1624.3,243z"/>
	<path fill="#FFFFFF" d="M-1652.7,241.8c6.8,0,12.3-5.5,12.3-12.3c0-6.8-5.5-12.3-12.3-12.3s-12.3,5.5-12.3,12.3
		C-1665,236.2-1659.5,241.8-1652.7,241.8z"/>
	<g>
		<path fill="#FFFFFF" d="M-1625.5,259.8c0.1-0.6,0.1-1.2,0.1-1.9c0-7.9-6.5-14.4-14.4-14.4c-7.9,0-14.4,6.5-14.4,14.4
			c0,1.6,0.3,3.1,0.7,4.5C-1641.3,258-1630.5,258.9-1625.5,259.8z"/>
	</g>
</g>
<g>
	<path fill="#005DAA" d="M309.3,303.2c0,4.1-26.4,7.4-59,7.4c-32.6,0-59.1-3.3-59.1-7.4c0-4.1,26.7-10.1,59.3-10.1
		C283.1,293.1,309.3,299.1,309.3,303.2z"/>
	<path fill="#FFFFFF" d="M190.6,257.2c-0.4,2.4,0.6,4.6,2.6,5.8c1,0.6,2.3,0.9,3.5,0.9c1.4,0,2.8-0.4,3.9-1.2
		c1.7-1.3,2.4-3.4,1.9-5.7c0.7,0.1,1.5,0.2,2.3,0.4c-0.4,2-0.6,4-0.6,6.1c0,7.4,2.6,14.2,7.2,20.1l10.5,18.7c0,0,1.4,0.8,6.7,0.8
		c5.3,0,7.2-0.8,7.2-0.8l-2.6-7.8c0,0,4.9,5.1,18.4,5.1c14.2,0,18.1-4.2,18.1-4.2l1.1,6.9c0,0,1.6,0.8,6.8,0.8
		c5.2,0,6.6-0.8,6.6-0.8l5.5-14.9c0.8-1,5.2-5.5,5.8-6.6c-12-7.1-12-15.7-12-15.7c6.1,4,16,6.9,16,6.9c0,0,4.6-2.5,6.9-7.2
		c3.4-7.1,0.7-16.2,0.7-16.2l-10.8-1.1c-2.5-4.3-6-8.1-10.2-11.4c2.2-7.4,0.9-14.4-2.9-15.6c-3.4-1-7.6,2.6-10.2,8.4
		c-6.2-2.3-13.2-3.6-20.6-3.6c-22.3,0-41,11.9-46.6,28.2c-1.4-0.3-6.1-0.7-6.8-0.8c-1.1-0.7-4.9-2.6-5.5-3c-1-0.6-2.2-0.3-2.8,0.6
		c-0.6,1-0.3,2.2,0.6,2.8c0.4,0.2,0.8,0.5,1.3,0.7C191.6,254.5,190.8,255.6,190.6,257.2z M194.6,257.9c0.1-0.8,1.5-1.1,3-1.1
		c0.3,0.3,0.6,0.7,0.7,1c0.3,1.2-0.1,1.6-0.3,1.7c-0.7,0.5-1.9,0.5-2.7,0C194.7,259.2,194.5,258.6,194.6,257.9z"/>
	<circle fill="#005DAA" cx="279.3" cy="249.1" r="4.2"/>
	<path fill="#005DAA" d="M231,232.8C231,232.8,231,232.8,231,232.8c17.2-7.1,32.3-3.1,32.9-2.9v0c0.9,0.3,1.4,1.3,1.1,2.2
		c-0.3,0.9-1.2,1.4-2.1,1.2l0,0c-0.1,0-14.5-3.9-30.6,2.8l0,0c-0.9,0.4-1.9-0.1-2.3-0.9C229.6,234.2,230.1,233.1,231,232.8z"/>
	<g>
		<defs>
			<path id="SVGID_1_" d="M190.6,257.2c-0.4,2.4,0.6,4.6,2.6,5.8c1,0.6,2.3,0.9,3.5,0.9c1.4,0,2.8-0.4,3.9-1.2
				c1.7-1.3,2.4-3.4,1.9-5.7c0.7,0.1,1.5,0.2,2.3,0.4c-0.4,2-0.6,4-0.6,6.1c0,7.4,2.6,14.2,7.2,20.1l10.5,18.7c0,0,1.4,0.8,6.7,0.8
				c5.3,0,7.2-0.8,7.2-0.8l-2.6-7.8c0,0,4.9,5.1,18.4,5.1c14.2,0,18.1-4.2,18.1-4.2l1.1,6.9c0,0,1.6,0.8,6.8,0.8
				c5.2,0,6.6-0.8,6.6-0.8l5.5-14.9c0.8-1,5.2-5.5,5.8-6.6c-12-7.1-12-15.7-12-15.7c6.1,4,16,6.9,16,6.9c0,0,4.6-2.5,6.9-7.2
				c3.4-7.1,0.7-16.2,0.7-16.2l-10.8-1.1c-2.5-4.3-6-8.1-10.2-11.4c2.2-7.4,0.9-14.4-2.9-15.6c-3.4-1-7.6,2.6-10.2,8.4
				c-6.2-2.3-13.2-3.6-20.6-3.6c-22.3,0-41,11.9-46.6,28.2c-1.4-0.3-6.1-0.7-6.8-0.8c-1.1-0.7-4.9-2.6-5.5-3c-1-0.6-2.2-0.3-2.8,0.6
				c-0.6,1-0.3,2.2,0.6,2.8c0.4,0.2,0.8,0.5,1.3,0.7C191.6,254.5,190.8,255.6,190.6,257.2z M194.6,257.9c0.1-0.8,1.5-1.1,3-1.1
				c0.3,0.3,0.6,0.7,0.7,1c0.3,1.2-0.1,1.6-0.3,1.7c-0.7,0.5-1.9,0.5-2.7,0C194.7,259.2,194.5,258.6,194.6,257.9z"/>
		</defs>
		<clipPath id="SVGID_4_">
			<use xlink:href="#SVGID_1_"  overflow="visible"/>
		</clipPath>
	</g>
	<path fill="#FFFFFF" d="M262.3,214.4c5.3,0,9.7-4.3,9.7-9.7c0-5.3-4.3-9.7-9.7-9.7c-5.3,0-9.7,4.3-9.7,9.7
		C252.6,210.1,256.9,214.4,262.3,214.4z"/>
	<path fill="#FFFFFF" d="M233.8,213.2c6.8,0,12.3-5.5,12.3-12.3c0-6.8-5.5-12.3-12.3-12.3c-6.8,0-12.3,5.5-12.3,12.3
		C221.5,207.6,227.1,213.2,233.8,213.2z"/>
	<g>
		<path fill="#FFFFFF" d="M261,231.2c0.1-0.6,0.1-1.2,0.1-1.9c0-7.9-6.5-14.4-14.4-14.4c-7.9,0-14.4,6.5-14.4,14.4
			c0,1.6,0.3,3.1,0.7,4.5C245.3,229.4,256.1,230.3,261,231.2z"/>
	</g>
</g>
</svg>
