<?xml version="1.0" encoding="utf-8"?>
<!-- Generator: Adobe Illustrator 18.1.1, SVG Export Plug-In . SVG Version: 6.00 Build 0)  -->
<svg version="1.1" id="Layer_1" xmlns="http://www.w3.org/2000/svg" xmlns:xlink="http://www.w3.org/1999/xlink" x="0px" y="0px"
	 viewBox="0 0 14.3 14.3" enable-background="new 0 0 14.3 14.3" xml:space="preserve">
<path fill="#F2F3F5" d="M9.2,0.3C10,0.7,10.9,1,11.6,1.6c0.4,0.3,0.7,0.6,1,1c0.8,1.1,1.3,2.3,1.6,3.6c0.1,0.6,0.1,1.2,0,1.9
	c-0.1,0.3-0.2,0.7-0.3,1c0,0.2-0.1,0.4-0.1,0.6c-0.5,0.8-0.9,1.8-1.6,2.5c-0.7,0.2-2.2-0.2-2.6-0.7c-0.2-0.3-0.4-0.6-0.7-0.9
	c-0.3-0.2-0.3-0.6-0.1-0.9c0.4-0.6,0.5-1.3,1-1.9c0.3-0.4,0.5-1,0.2-1.6c-0.2-0.5-0.2-1-0.1-1.5c0.1-2.6-1.5-3.2-3.7-2.8
	C5.5,2,5,2.4,4.5,2.8C4.3,2.9,4.2,3.2,4.2,3.5C4.2,4.2,4,5,4.4,5.7c0.1,0.2,0.1,0.5,0,0.7c-0.2,0.4-0.2,1,0.1,1.3
	c0.5,0.6,0.6,1.4,1,2c0.3,0.4,0.2,0.6-0.1,1c-0.7,0.8-1.6,1.2-2.5,1.6c-0.2,0.1-0.4,0.2-0.6,0.1c0-0.5-0.5-0.4-0.7-0.7
	c-0.6-1-1.3-2-1.5-3.2C0,8.3,0,8,0.1,7.8c0-0.4,0-0.9,0-1.3C0,6.2,0,6,0.1,5.8c0.3-1.2,0.9-2.2,1.4-3.2C1.6,2.4,1.8,2.3,2,2.2
	c0.8-0.9,1.9-1.4,3-1.9C5.3,0.2,5.5,0,5.8,0.1C5.9,0.1,6,0,6.1,0C6.8-0.1,7.4-0.1,8,0c0.1,0,0.2,0.1,0.3,0.1C8.6,0,8.9,0.2,9.2,0.3z
	"/>
<path fill="#C9CACB" d="M2.2,12.4c0.7-0.3,1.5-0.7,2.2-1c0.5-0.2,0.5-0.9,1.1-1c0.1,0,0-0.4-0.2-0.6C4.8,8.9,4.2,8.1,4,7
	C4,7,4,6.9,4,6.8c0.6-1.1-0.3-2.2,0-3.3C4,3.2,4.1,2.9,4.3,2.7c1.2-1.1,2.6-1.4,4.2-0.9C9.6,2.1,9.9,3.1,10,4.1
	c0.1,0.8-0.1,1.6,0.3,2.4c0.2,0.4-0.1,1.1-0.5,1.5C9.6,8.4,9.4,8.6,9.4,9c0,0.2-0.1,0.4-0.3,0.6c-0.3,0.4-0.7,0.8,0.2,1
	c0.1,0,0.2,0.1,0.2,0.1c0.3,1.5,1.7,1.1,2.6,1.4c-0.4,0.8-1.2,1.1-1.9,1.5c-2,1-4.1,1-6.2,0.1C3.4,13.4,2.7,13,2.2,12.4z"/>
</svg>
