<?xml version="1.0" encoding="utf-8"?>
<!-- Generator: Adobe Illustrator 18.1.1, SVG Export Plug-In . SVG Version: 6.00 Build 0)  -->
<svg version="1.1" id="Layer_1" xmlns="http://www.w3.org/2000/svg" xmlns:xlink="http://www.w3.org/1999/xlink" x="0px" y="0px"
	 viewBox="21.1 111.6 221.3 268" enable-background="new 21.1 111.6 221.3 268" xml:space="preserve">
<g>
	<path fill="#D13239" d="M21.1,245.8c0-19.4,15.7-35.1,35-35c19.3,0.1,34.6,15.6,34.6,34.9c0,19.2-15.3,34.9-34.5,35
		C37,280.9,21.1,265,21.1,245.8z"/>
	<path fill="#D13239" d="M242.3,245.9c0,19.2-15.7,34.9-34.8,34.8c-19.3,0-35-15.8-34.9-35.2c0.1-19.2,15.6-34.6,34.8-34.8
		C226.9,210.8,242.4,226.3,242.3,245.9z"/>
	<path fill="#D13239" d="M82.4,353c0.1,14.8-11.5,26.6-26.2,26.6c-15.1,0-26.8-11.6-26.7-26.6c0-14.8,11.6-26.3,26.5-26.5
		C70.7,326.6,82.3,338.3,82.4,353z"/>
	<path fill="#D13239" d="M82.4,138.3c0,14.6-11.7,26.5-26.5,26.5S29.5,153,29.5,138.3c-0.1-15,11.9-26.8,26.7-26.7
		C70.8,111.8,82.3,123.4,82.4,138.3z"/>
	<path fill="#D13239" d="M158.1,299.7c-0.1,14.7-12,26.6-26.5,26.5c-14.6-0.2-26.5-12.1-26.3-26.7c0-14.8,12.1-26.8,27-26.6
		C146.8,273.1,158.1,284.7,158.1,299.7z"/>
	<path fill="#D13239" d="M158.1,192.1c-0.1,14.8-11.7,26.5-26.3,26.5c-14.7,0-26.7-12.2-26.5-27c0.1-14.6,12.4-26.5,26.8-26.2
		C146.8,165.6,158.1,177.1,158.1,192.1z"/>
</g>
</svg>
