<?xml version="1.0" encoding="utf-8"?>
<!-- Generator: Adobe Illustrator 18.1.1, SVG Export Plug-In . SVG Version: 6.00 Build 0)  -->
<svg version="1.1" id="Layer_1" xmlns="http://www.w3.org/2000/svg" xmlns:xlink="http://www.w3.org/1999/xlink" x="0px" y="0px"
	 viewBox="35.9 143.3 303.2 380.4" enable-background="new 35.9 143.3 303.2 380.4" xml:space="preserve">
<g>
	<path fill="#D13239" d="M36.1,251.8c0-15.7,12.7-28.4,28.3-28.3c15.6,0.1,28,12.6,28,28.2c0,15.5-12.4,28.2-27.9,28.3
		C49,280.2,36.1,267.4,36.1,251.8z"/>
	<path fill="#D13239" d="M215,251.9c0,15.5-12.7,28.2-28.1,28.1c-15.6,0-28.3-12.8-28.2-28.5c0.1-15.5,12.6-28,28.1-28.1
		C202.5,223.5,215.1,236.1,215,251.9z"/>
	<path fill="#D13239" d="M85.7,338.5c0.1,12-9.3,21.5-21.2,21.5c-12.2,0-21.7-9.4-21.6-21.5c0-12,9.4-21.3,21.4-21.4
		C76.2,317.2,85.6,326.6,85.7,338.5z"/>
	<path fill="#D13239" d="M85.7,164.9c0,11.8-9.5,21.4-21.4,21.4s-21.4-9.5-21.4-21.4c-0.1-12.1,9.6-21.7,21.6-21.6
		C76.3,143.5,85.6,152.9,85.7,164.9z"/>
	<path fill="#D13239" d="M146.9,295.4c-0.1,11.9-9.7,21.5-21.4,21.4c-11.8-0.2-21.4-9.8-21.3-21.6c0-12,9.8-21.7,21.8-21.5
		C137.8,273.9,146.9,283.3,146.9,295.4z"/>
	<path fill="#D13239" d="M146.9,208.4c-0.1,12-9.5,21.4-21.3,21.4c-11.9,0-21.6-9.9-21.4-21.8c0.1-11.8,10-21.4,21.7-21.2
		C137.8,187,146.9,196.3,146.9,208.4z"/>
</g>
<g>
	<path fill="#005CB9" d="M113.4,436.8c5-7.6,9.8-14.8,14.6-22.1c0.9-1.4,1.7-2.7,2.7-4c1.3-1.7,3.2-2,5.1-1.3
		c1.8,0.6,2.7,2.1,2.7,4.1c0,14,0,28,0,42c0,2.9-1.5,4.5-4.3,4.5c-2.9,0-4.3-1.7-4.4-4.5c-0.1-7.2,0-14.5,0-21.7
		c0-1.3,0-2.7-0.8-4.4c-2.2,3.3-4.5,6.7-6.7,10c-1.5,2.2-2.9,4.4-4.4,6.5c-3,4.3-6.2,4.3-9.1,0c-3.7-5.4-7.3-10.9-11-16.5
		c-1.4,0.7-0.9,1.8-0.9,2.7c-0.1,7.5-0.1,15,0,22.5c0,3-1,5.3-4.3,5.3s-4.4-2.1-4.4-5.2c0.1-13.4,0.1-26.7,0-40.1
		c0-2.5,0.4-4.6,3-5.4c2.7-0.8,4.4,0.6,5.9,2.8c4.2,6.6,8.6,13.2,12.9,19.7C111.1,433.4,112.1,434.9,113.4,436.8z"/>
	<path fill="#005CB9" d="M228.5,505.6c0-10.3,0-19.7,0-29.1c0-2.6,0.8-4.4,3.5-5c3.1-0.7,5.2,1.3,5.2,5.1c0.1,9.4,0,18.7,0,28.1
		c0,4.1,0,8.2,0,12.4c0,2.3-0.5,4.2-3,5.1c-2.4,0.8-4.1-0.3-5.5-2.1c-8-9.9-16.1-19.7-24.1-29.6c-0.3-0.4-0.7-0.7-1-1.1
		c-1.5,0.7-0.9,2-0.9,2.9c-0.1,8.1-0.1,16.2,0,24.3c0,3.1-0.7,5.5-4.3,5.7c-2.9,0.1-4.4-1.8-4.4-5.6c0-13.2,0-26.5,0-39.7
		c0-2.5,0.4-4.6,3-5.4c2.5-0.8,4.2,0.5,5.7,2.5c7.7,9.5,15.4,19,23.2,28.5C226.5,503.3,227.2,504.1,228.5,505.6z"/>
	<path fill="#005CB9" d="M283.2,495.7c11,0,10.9,0,10.6,11.1c-0.1,1.4-0.4,2.6-1.2,3.8c-5.9,9.1-17.5,13.5-27.8,10.6
		c-10.6-3-18.1-12.6-18.2-23.4c-0.2-12.4,6.4-22.3,17.2-25.7c10.6-3.4,22.3,0.6,28.5,9.7c0.1,0.1,0.1,0.2,0.2,0.3
		c1.7,2.5,2.4,5.1-0.4,7.3c-2.2,1.8-4.6,0.9-6.8-2.1c-4.8-6.6-12-9.1-19-6.6s-11.4,9.7-10.8,17.5c0.6,7.5,6,13.6,13.6,14.9
		c6.2,1,11.6-1,15.7-5.8c0.6-0.6,1.2-1.4,0.7-2.3c-0.4-0.8-1.3-0.4-2-0.4c-2.4,0-4.7,0-7.1,0c-2.7-0.1-4.1-1.6-4.2-4.3
		c-0.1-2.7,1.4-4.2,4.1-4.4C278.5,495.6,280.8,495.7,283.2,495.7z"/>
	<path fill="#005CB9" d="M137,496.6c0,6.7-0.1,13.5,0,20.2c0,3.1-1.1,5.4-4.3,5.4s-4.5-2.2-4.5-5.3c0.1-4.4-0.1-8.7,0.1-13.1
		c0.1-2.1-0.7-2.8-2.8-2.8c-5.6,0.1-11.2,0.1-16.9,0c-2.1,0-2.9,0.6-2.8,2.7c0.1,4.4,0,8.7,0.1,13.1c0,3.1-1.2,5.3-4.4,5.3
		c-3.2,0-4.3-2.3-4.3-5.4c0.1-13.4,0.1-26.7,0-40.1c0-3,0.9-5.2,4.2-5.4c2.9-0.2,4.4,1.8,4.5,5.6c0,4.2,0.1,8.5,0,12.7
		c-0.1,2,0.3,2.9,2.6,2.9c5.7-0.2,11.5-0.2,17.2,0c2.3,0.1,2.7-0.9,2.6-2.8c-0.1-4,0-8,0-12c0-4.4,1.4-6.4,4.5-6.3
		c2.9,0.1,4.2,1.9,4.2,6.2C137,483.8,137,490.2,137,496.6z"/>
	<path fill="#005CB9" d="M41,496.8c0-11.6,6.8-21.2,16.9-24.6c10.5-3.5,22.1,0.3,28.6,9.3c2.4,3.3,2.4,6.2,0,7.9
		c-2.4,1.7-4.6,1-7.1-2.4c-4.6-6.2-11.6-8.6-18.4-6.4c-6.7,2.2-11.3,8.9-11.3,16.1s4.8,13.8,11.5,15.9c6.7,2.1,13.7-0.3,18.1-6.3
		c1.4-1.9,2.6-3.7,5.3-3.3c3.6,0.6,4.9,4.4,2.3,7.9c-6.3,8.8-15,12.7-25.7,10.8c-10.3-1.9-16.7-8.4-19.6-18.4
		C41.1,501,40.8,498.6,41,496.8z"/>
	<path fill="#005CB9" d="M303.5,496.5c0-6.5,0-13,0-19.5c0-4.4,1.2-5.6,5.5-5.6c7.7,0,15.5,0,23.2,0c3.1,0,5.2,0.9,5.2,4.4
		s-2.2,4.4-5.2,4.4c-5.7,0-11.5,0.1-17.2,0c-2.1,0-2.7,0.7-2.8,2.8c-0.3,9.6-0.4,9.6,9,9.6c1.7,0,3.5-0.1,5.2,0
		c2.7,0.1,4.1,1.6,4.2,4.3c0,2.7-1.5,4.2-4.1,4.3c-3.9,0.1-7.7,0.1-11.6,0c-1.9,0-2.6,0.5-2.7,2.5c-0.5,9.4-0.5,9.4,8.9,9.4
		c4.4,0,8.7,0,13.1,0c3,0,4.9,1.4,4.9,4.4s-1.9,4.3-5,4.3c-8.5-0.1-17,0-25.5,0c-3.8,0-5.1-1.4-5.1-5.3
		C303.5,509.8,303.5,503.1,303.5,496.5z"/>
	<path fill="#005CB9" d="M60.8,459.5c-5.7,0.2-10.9-1.3-15.4-4.8c-1.1-0.8-2.1-1.8-2.8-2.9c-1.5-2.1-1.2-4.3,0.6-6.1
		c1.8-1.8,3.9-1.5,5.7,0c2.7,2.3,5.5,4.3,9,5c3,0.6,6,0.4,8.7-1c4-2,4.1-6.6,0.4-9c-2.6-1.6-5.5-2.2-8.4-3c-3-0.8-6-1.7-8.7-3.3
		c-8.9-5.1-9.1-17.3-0.4-22.7c7.6-4.8,20.4-3.3,26.9,3c2,1.9,2.4,4.2,0.8,6.4c-1.6,2.2-3.9,2-6,0.7c-1.4-0.8-2.7-1.8-4.1-2.6
		c-3.8-2.1-7.8-2.5-11.8-0.5c-1.8,0.9-3.1,2.1-3.2,4.2c-0.1,2.2,1.3,3.5,3.1,4.2c2,0.8,4,1.4,6,2c2.4,0.7,4.8,1.3,7.1,2.2
		c8.2,3.1,11.4,8.4,10,16.5c-1.1,6.6-6.8,11.1-14.6,11.6C62.8,459.5,61.8,459.5,60.8,459.5z"/>
	<path fill="#005CB9" d="M188.8,454.6c0.1,2.7-0.9,4.2-2.9,4.8c-2.3,0.7-4.3,0.1-5.4-2.2c-1-2-1.9-4.1-2.6-6.2
		c-0.6-1.7-1.6-2.2-3.3-2.2c-5,0.1-10,0.1-15,0c-1.9-0.1-3,0.5-3.6,2.4c-0.4,1.4-1.1,2.8-1.7,4.1c-1.7,3.8-4,5.3-6.7,3.9
		c-3.4-1.8-2.6-4.6-1.4-7.5c3-7.1,5.9-14.3,8.9-21.4c2.4-5.9,4.9-11.7,7.3-17.6c0.9-2.2,2-4.1,4.7-4c2.5,0,3.6,1.7,4.5,3.8
		c5.4,13.2,10.9,26.4,16.4,39.7C188.4,453.2,188.6,454.2,188.8,454.6z M167,424.9c-1.1,2.6-1.9,4.5-2.7,6.4c-4,9.8-4,9.8,6.6,9
		c0.2,0,0.5,0,0.7,0c1.3,0,1.4-0.6,0.9-1.7C170.8,434.3,169.1,429.9,167,424.9z"/>
	<path fill="#005CB9" d="M233.7,433.9c0-6.6,0-13.2,0-19.8c0-2.9,0.9-4.9,4.1-5.1c3.4-0.1,4.6,1.9,4.6,5c0,10.5,0,21,0,31.5
		c0,6-0.8,5.2,5.1,5.3c4.6,0,9.2,0,13.9,0c3.1,0,5.3,1.1,5.2,4.4c-0.1,3.3-2.2,4.3-5.3,4.3c-7.4-0.1-14.7,0-22.1,0
		c-4.2,0-5.4-1.3-5.4-5.7C233.7,447.1,233.7,440.5,233.7,433.9z"/>
	<path fill="#005CB9" d="M195.5,434c0-6.6,0-13.2,0-19.8c0-3.1,0.9-5.2,4.4-5.2s4.3,2.2,4.3,5.2c0,11,0.1,22-0.1,32.9
		c0,2.8,0.7,3.7,3.5,3.6c5-0.2,10,0,15-0.1c3.1,0,5.5,0.7,5.7,4.3c0.2,2.9-1.8,4.4-5.6,4.4c-7.4,0-14.7,0-22.1,0
		c-3.8,0-5.2-1.4-5.2-5.2C195.5,447.5,195.5,440.8,195.5,434z"/>
	<path fill="#005CB9" d="M187.3,517.1c0.1,2.7-0.9,4.2-2.9,4.8c-2.3,0.7-4.3,0.1-5.4-2.2c-1-2-1.9-4.1-2.6-6.2
		c-0.6-1.7-1.6-2.2-3.3-2.2c-5,0.1-10,0.1-15,0c-1.9-0.1-3,0.5-3.6,2.4c-0.4,1.4-1.1,2.8-1.7,4.1c-1.7,3.8-4,5.3-6.7,3.9
		c-3.4-1.8-2.6-4.6-1.4-7.5c3-7.1,5.9-14.3,8.9-21.4c2.4-5.9,4.9-11.7,7.3-17.6c0.9-2.2,2-4.1,4.7-4c2.5,0,3.6,1.7,4.5,3.8
		c5.4,13.2,10.9,26.4,16.4,39.7C186.9,515.7,187.1,516.7,187.3,517.1z M165.5,487.4c-1.1,2.6-1.9,4.5-2.7,6.4c-4,9.8-4,9.8,6.6,9
		c0.2,0,0.5,0,0.7,0c1.3,0,1.4-0.6,0.9-1.7C169.3,496.8,167.6,492.4,165.5,487.4z"/>
</g>
</svg>
