<?xml version="1.0" encoding="utf-8"?>
<!-- Generator: Adobe Illustrator 18.1.1, SVG Export Plug-In . SVG Version: 6.00 Build 0)  -->
<svg version="1.1" id="Layer_1" xmlns="http://www.w3.org/2000/svg" xmlns:xlink="http://www.w3.org/1999/xlink" x="0px" y="0px"
	 viewBox="0 237.2 500 25.7" enable-background="new 0 237.2 500 25.7" xml:space="preserve">
<g>
	<path fill="#0F4B7D" d="M8.4,237.2c2.4,0,4.7,1,6,2.9c1.6-1.8,3.9-2.9,6.3-2.9c4.7,0,8.4,3.9,8.4,8.6c0,3.7-2.4,7.6-6.8,11.8
		c-3.4,2.9-6.6,5-6.6,5c-0.5,0.3-0.8,0.3-1.3,0.3s-0.8-0.3-1.3-0.3c0,0-3.1-2.1-6.3-5c-4.5-4.2-6.8-8.1-6.8-11.8
		C0,241.1,3.7,237.2,8.4,237.2z"/>
</g>
<g>
	<path fill="#0F4B7D" d="M60.8,237.2c2.4,0,4.7,1,6,2.9c1.6-1.8,3.7-2.9,6-2.9c4.7,0,8.4,3.9,8.4,8.6c0,3.7-2.4,7.6-6.8,11.8
		c-3.1,2.9-6.3,5-6.3,5c-0.3,0.3-0.8,0.3-1.3,0.3c-0.5,0-0.8-0.3-1.3-0.3c-0.3,0-3.1-2.1-6.6-5c-4.5-4.2-6.6-8.1-6.6-11.8
		C52.4,241.1,56.1,237.2,60.8,237.2z"/>
</g>
<g>
	<path fill="#0F4B7D" d="M112.9,237.2c2.4,0,4.7,1,6,2.9c1.8-1.8,3.9-2.9,6.3-2.9c4.7,0,8.4,3.9,8.4,8.6c0,3.7-2.4,7.6-6.8,11.8
		c-3.1,2.9-6.3,5-6.6,5c-0.3,0.3-0.8,0.3-1.3,0.3c-0.5,0-0.8-0.3-1.3-0.3c-0.3,0-3.1-2.1-6.6-5c-4.2-4.2-6.3-8.1-6.3-11.8
		C104.8,241.1,108.5,237.2,112.9,237.2z"/>
</g>
<g>
	<path fill="#0F4B7D" d="M165.4,237.2c2.4,0,4.7,1,6,2.9c1.6-1.8,3.9-2.9,6.3-2.9c4.7,0,8.4,3.9,8.4,8.6c0,3.7-2.4,7.6-6.8,11.8
		c-3.1,2.9-6.3,5-6.6,5c-0.3,0.3-0.8,0.3-1.3,0.3c-0.5,0-0.8-0.3-1.3-0.3c-0.3,0-3.1-2.1-6.6-5c-4.5-4.2-6.8-8.1-6.8-11.8
		C157,241.1,160.9,237.2,165.4,237.2z"/>
</g>
<g>
	<path fill="#0F4B7D" d="M217.8,237.2c2.4,0,4.7,1,6,2.9c1.6-1.8,3.9-2.9,6.3-2.9c4.5,0,8.4,3.9,8.4,8.6c0,3.7-2.4,7.6-6.8,11.8
		c-3.1,2.9-6.3,5-6.6,5c-0.3,0.3-0.8,0.3-1.3,0.3c-0.5,0-0.8-0.3-1.3-0.3c-0.3,0-3.1-2.1-6.6-5c-4.5-4.2-6.8-8.1-6.8-11.8
		C209.4,241.1,213.1,237.2,217.8,237.2z"/>
</g>
<g>
	<path fill="#0F4B7D" d="M270.2,237.2c2.4,0,4.7,1,6,2.9c1.6-1.8,3.7-2.9,6-2.9c4.7,0,8.4,3.9,8.4,8.6c0,3.7-2.4,7.6-6.8,11.8
		c-3.1,2.9-6.3,5-6.6,5c-0.3,0.3-0.8,0.3-1.3,0.3s-0.8-0.3-1.3-0.3c-0.3,0-3.1-2.1-6.6-5c-4.5-4.2-6.8-8.1-6.8-11.8
		C261.8,241.1,265.5,237.2,270.2,237.2z"/>
</g>
<g>
	<path fill="#0F4B7D" d="M322.3,237.2c2.4,0,4.7,1,6,2.9c1.6-1.8,3.7-2.9,6-2.9c4.7,0,8.4,3.9,8.4,8.6c0,3.7-2.4,7.6-6.8,11.8
		c-3.1,2.9-6.3,5-6.6,5c-0.3,0.3-0.8,0.3-1.3,0.3s-0.8-0.3-1.3-0.3c-0.3,0-3.1-2.1-6.6-5c-4.5-4.2-6.8-8.1-6.8-11.8
		C314.2,241.1,317.9,237.2,322.3,237.2z"/>
</g>
<g>
	<path fill="#0F4B7D" d="M374.7,237.2c2.4,0,4.7,1,6,2.9c1.6-1.8,3.7-2.9,6-2.9c4.7,0,8.4,3.9,8.4,8.6c0,3.7-2.4,7.6-6.8,11.8
		c-3.1,2.9-6.3,5-6.6,5c-0.3,0.3-0.8,0.3-1.3,0.3c-0.5,0-0.8-0.3-1.3-0.3c-0.3,0-3.1-2.1-6.6-5c-4.5-4.2-6.8-8.1-6.8-11.8
		C366.4,241.1,370.3,237.2,374.7,237.2z"/>
</g>
<g>
	<path fill="#0F4B7D" d="M427.1,237.2c2.4,0,4.7,1,6,2.9c1.6-1.8,3.7-2.9,6-2.9c4.7,0,8.4,3.9,8.4,8.6c0,3.7-2.4,7.6-6.8,11.8
		c-3.1,2.9-6.3,5-6.6,5c-0.3,0.3-0.8,0.3-1.3,0.3s-0.8-0.3-1.3-0.3c-0.3,0-3.1-2.1-6.6-5c-4.5-4.2-6.8-8.1-6.8-11.8
		C418.8,241.1,422.4,237.2,427.1,237.2z"/>
</g>
<g>
	<path fill="#0F4B7D" d="M479.6,237.2c2.4,0,4.7,1,6,2.9c1.6-1.8,3.7-2.9,6-2.9c4.7,0,8.4,3.9,8.4,8.6c0,3.7-2.4,7.6-6.8,11.8
		c-3.1,2.9-6.3,5-6.6,5c-0.3,0.3-0.8,0.3-1.3,0.3c-0.5,0-0.8-0.3-1.3-0.3c-0.3,0-3.1-2.1-6.6-5c-4.5-4.2-6.8-8.1-6.8-11.8
		C471.2,241.1,474.8,237.2,479.6,237.2z"/>
</g>
</svg>
