<?xml version="1.0" encoding="utf-8"?>
<!-- Generator: Adobe Illustrator 18.1.1, SVG Export Plug-In . SVG Version: 6.00 Build 0)  -->
<svg version="1.1" id="Layer_1" xmlns="http://www.w3.org/2000/svg" xmlns:xlink="http://www.w3.org/1999/xlink" x="0px" y="0px"
	 viewBox="194.8 181 110.5 138" enable-background="new 194.8 181 110.5 138" xml:space="preserve">
<g>
	<g>
		<path fill="#FFFFFF" d="M204.3,295.5c-2,0-3.8-0.8-4.8-1.3c-1.7-1.1-2-1.9-2-2.3c-0.1-0.9,0.6-1.7,1.3-1.8
			c0.5-0.1,1.1,0.3,1.5,0.7c1.2,1.2,2.7,1.7,4,1.7c1.8,0,3.3-0.6,3.3-2.2c0-1.3-1.1-1.9-3.8-2.6c-3.9-1-5.8-2.4-5.8-5.3
			c0-3,2.5-5.2,6.3-5.2c3.5,0,5.6,2,5.8,2.3c0.3,0.3,0.4,0.7,0.4,1c0,0.7-0.3,1.3-0.9,1.5c-0.6,0.2-1,0.1-1.7-0.3
			c-0.8-0.5-1.8-1.5-3.7-1.5c-1.8,0-3.1,0.9-3.1,2c0,1.2,0.9,1.7,3.4,2.3c4.6,1.1,6.2,2.7,6.2,5.6
			C210.8,293.4,208.4,295.5,204.3,295.5z"/>
		<path fill="#FFFFFF" d="M231.1,295.5c-0.9,0-1.6-0.7-1.6-1.6v-10.1l-4.6,7c-0.3,0.4-0.8,0.7-1.3,0.7c-0.5,0-1-0.2-1.3-0.7l-4.6-7
			v10.1c0,0.9-0.7,1.6-1.6,1.6c-0.9,0-1.6-0.7-1.6-1.6v-15.3c0-0.7,0.4-1.3,1.1-1.5c0.7-0.2,1.3,0.1,1.8,0.6l6.2,9.4l6.2-9.4
			c0.4-0.6,1.1-0.8,1.8-0.6c0.7,0.2,1.1,0.8,1.1,1.5v15.3C232.6,294.8,231.9,295.5,231.1,295.5z"/>
		<path fill="#FFFFFF" d="M250.7,293.3c0.3,0.8,0,1.7-0.8,2c-0.8,0.3-1.7,0-2-0.8l-1.2-2.9h-7.3l-1.2,2.9c-0.2,0.6-0.8,1-1.4,1
			c-1,0-1.9-1-1.4-2.2l6.3-15.3c0.2-0.6,0.8-1,1.4-1c0.6,0,1.2,0.4,1.4,1L250.7,293.3z M240.6,288.5h4.7l-2.3-5.8L240.6,288.5z"/>
		<path fill="#FFFFFF" d="M263.6,295.4h-8.8c-0.8,0-1.6-0.7-1.6-1.6v-15.1c0-0.9,0.7-1.6,1.6-1.6c0.9,0,1.6,0.7,1.6,1.6v13.6h7.2
			c0.9,0,1.6,0.7,1.6,1.6C265.2,294.7,264.5,295.4,263.6,295.4z"/>
		<path fill="#FFFFFF" d="M277.4,295.4h-8.8c-0.8,0-1.6-0.7-1.6-1.6v-15.1c0-0.9,0.7-1.6,1.6-1.6c0.9,0,1.6,0.7,1.6,1.6v13.6h7.2
			c0.9,0,1.6,0.7,1.6,1.6C279,294.7,278.3,295.4,277.4,295.4z"/>
	</g>
	<path fill="#FFFFFF" d="M206.3,317.9c-5.2,0-9.1-4.2-9.1-9.2c0-5,3.9-9.2,9.1-9.2c3.2,0,6.3,1.8,7.8,4.5c0.4,0.7,0.2,1.7-0.6,2.1
		c-0.8,0.4-1.7,0.2-2.1-0.6c-1.1-1.8-2.9-3-5.2-3c-3.3,0-5.9,2.7-5.9,6.1s2.7,6.1,5.9,6.1c2.2,0,4.1-1.2,5.2-3
		c0.4-0.8,1.4-1,2.1-0.6c0.8,0.4,1,1.4,0.6,2.1C212.5,316.1,209.5,317.9,206.3,317.9z"/>
	<path fill="#FFFFFF" d="M230.5,299.5c0.9,0,1.6,0.7,1.6,1.6v15.3c0,0.9-0.7,1.6-1.6,1.6c-0.9,0-1.6-0.7-1.6-1.6v-6.1h-8.1v6.1
		c0,0.9-0.7,1.6-1.6,1.6c-0.9,0-1.6-0.7-1.6-1.6v-15.3c0-0.9,0.7-1.6,1.6-1.6c0.9,0,1.6,0.7,1.6,1.6v6.1h8.1v-6.1
		C228.9,300.2,229.6,299.5,230.5,299.5z"/>
	<path fill="#FFFFFF" d="M250.1,315.7c0.3,0.8,0,1.7-0.8,2c-0.8,0.3-1.7,0-2-0.8L246,314h-7.3l-1.2,2.9c-0.2,0.6-0.8,1-1.4,1
		c-1,0-1.9-1-1.4-2.2l6.3-15.3c0.3-0.6,0.8-1,1.4-1c0.6,0,1.2,0.4,1.4,1L250.1,315.7z M240,310.9h4.7l-2.3-5.8L240,310.9z"/>
	<path fill="#FFFFFF" d="M266.8,317.9c-0.5,0-0.9-0.2-1.2-0.6l-9.8-11.9v10.9c0,0.9-0.7,1.6-1.6,1.6c-0.9,0-1.6-0.7-1.6-1.6v-15.3
		c0-0.7,0.4-1.3,1-1.5c0.6-0.2,1.3,0,1.7,0.5l9.8,11.9v-10.9c0-0.9,0.7-1.6,1.6-1.6c0.9,0,1.6,0.7,1.6,1.6v15.3c0,0.7-0.4,1.3-1,1.5
		C267.1,317.9,267,317.9,266.8,317.9z"/>
	<path fill="#FFFFFF" d="M280.8,317.9c-5.2,0-9.1-4.2-9.1-9.2c0-5,3.9-9.2,9.1-9.2c3.2,0,6.3,1.8,7.8,4.5c0.4,0.7,0.2,1.7-0.6,2.1
		c-0.8,0.4-1.7,0.2-2.1-0.6c-1.1-1.8-2.9-3-5.2-3c-3.3,0-5.9,2.7-5.9,6.1s2.7,6.1,5.9,6.1c2.2,0,4.2-1.1,5.1-2.7v-0.6h-3.4
		c-0.9,0-1.6-0.7-1.6-1.6c0-0.9,0.7-1.6,1.6-1.6h4.8c0.9,0,1.6,0.7,1.6,1.6v2.4c0,0.4,0,0.7-0.2,1C287,316.1,284,317.9,280.8,317.9z
		"/>
	<path fill="#FFFFFF" d="M303.7,314.6c0.9,0,1.6,0.7,1.6,1.6s-0.7,1.6-1.6,1.6h-9.7c-0.9,0-1.6-0.7-1.6-1.6v-15
		c0-0.9,0.7-1.6,1.6-1.6h9.2c0.9,0,1.6,0.7,1.6,1.6c0,0.9-0.7,1.6-1.6,1.6h-7.6v4.4h5.1c0.9,0,1.6,0.7,1.6,1.6
		c0,0.9-0.7,1.6-1.6,1.6h-5.1v4.4H303.7z"/>
	<g>
		<circle fill="#FFFFFF" cx="205.7" cy="251.7" r="7.7"/>
		<circle fill="#FFFFFF" cx="227.9" cy="235.9" r="7.7"/>
		<circle fill="#FFFFFF" cx="227.9" cy="204.5" r="7.7"/>
		<circle fill="#FFFFFF" cx="205.7" cy="188.7" r="7.7"/>
		<circle fill="#FFFFFF" cx="205.7" cy="220.2" r="10.2"/>
		<circle fill="#FFFFFF" cx="250.1" cy="220.2" r="10.2"/>
	</g>
</g>
</svg>
